<?xml version="1.0" encoding="UTF-8" standalone="no"?><!DOCTYPE svg PUBLIC "-//W3C//DTD SVG 1.1//EN" "http://www.w3.org/Graphics/SVG/1.1/DTD/svg11.dtd"><svg width="100%" height="100%" viewBox="0 0 63 64" version="1.1" xmlns="http://www.w3.org/2000/svg" xmlns:xlink="http://www.w3.org/1999/xlink" xml:space="preserve" xmlns:serif="http://www.serif.com/" style="fill-rule:evenodd;clip-rule:evenodd;stroke-linecap:round;stroke-linejoin:round;stroke-miterlimit:10;"><g><path d="M47.94,31.869c-0,-9.138 -7.419,-16.557 -16.557,-16.557c-9.138,-0 -16.557,7.419 -16.557,16.557c-0,9.139 7.419,16.558 16.557,16.558c9.138,-0 16.557,-7.419 16.557,-16.558Z" style="fill:none;stroke:#fff;stroke-width:3px;"/><path d="M31.383,7.302l-0,-5.212" style="fill:none;fill-rule:nonzero;stroke:#fff;stroke-width:3px;"/><path d="M1.674,31.87l5.212,-0" style="fill:none;fill-rule:nonzero;stroke:#fff;stroke-width:3px;"/><path d="M48.703,49.191l4.099,4.1" style="fill:none;fill-rule:nonzero;stroke:#fff;stroke-width:3px;"/><path d="M9.961,10.449l4.1,4.1" style="fill:none;fill-rule:nonzero;stroke:#fff;stroke-width:3px;"/><path d="M14.06,49.192l-4.1,4.1" style="fill:none;fill-rule:nonzero;stroke:#fff;stroke-width:3px;"/><path d="M52.802,10.45l-4.101,4.1" style="fill:none;fill-rule:nonzero;stroke:#fff;stroke-width:3px;"/><path d="M48.704,14.549l4.1,-4.1" style="fill:none;fill-rule:nonzero;stroke:#fff;stroke-width:3px;"/><path d="M9.962,53.291l4.1,-4.1" style="fill:none;fill-rule:nonzero;stroke:#fff;stroke-width:3px;"/><path d="M48.653,49.243l4.099,4.1" style="fill:none;fill-rule:nonzero;stroke:#fff;stroke-width:3px;"/><path d="M9.91,10.5l4.1,4.1" style="fill:none;fill-rule:nonzero;stroke:#fff;stroke-width:3px;"/><path d="M31.331,56.417l-0,5.212" style="fill:none;fill-rule:nonzero;stroke:#fff;stroke-width:3px;"/><path d="M31.33,2.213l0,5.212" style="fill:none;fill-rule:nonzero;stroke:#fff;stroke-width:3px;"/><path d="M6.834,31.921l-5.212,-0" style="fill:none;fill-rule:nonzero;stroke:#fff;stroke-width:3px;"/><path d="M61.037,31.921l-5.213,-0" style="fill:none;fill-rule:nonzero;stroke:#fff;stroke-width:3px;"/></g></svg>