<?xml version="1.0" encoding="UTF-8" standalone="no"?><!DOCTYPE svg PUBLIC "-//W3C//DTD SVG 1.1//EN" "http://www.w3.org/Graphics/SVG/1.1/DTD/svg11.dtd"><svg width="100%" height="100%" viewBox="0 0 65 49" version="1.1" xmlns="http://www.w3.org/2000/svg" xmlns:xlink="http://www.w3.org/1999/xlink" xml:space="preserve" xmlns:serif="http://www.serif.com/" style="fill-rule:evenodd;clip-rule:evenodd;stroke-linecap:round;stroke-linejoin:round;stroke-miterlimit:10;"><g><path d="M40.021,29.879c3.85,0.864 6.727,4.303 6.727,8.414c-0,4.763 -3.862,8.624 -8.624,8.624l-27.878,-0c-4.763,-0 -8.624,-3.388 -8.624,-8.152c-0,-4.073 2.824,-7.488 6.622,-8.389c-0.235,-0.695 -0.361,-1.44 -0.361,-2.215c-0,-3.833 3.108,-6.942 6.942,-6.942c1.903,-0 3.627,0.766 4.881,2.006l0.001,-0.001c1.689,-3.722 5.439,-6.313 9.793,-6.313c5.937,-0 10.75,4.813 10.75,10.75c-0,0.761 -0.229,2.22 -0.229,2.22l-0,-0.002Z" style="fill:none;fill-rule:nonzero;stroke:#fff;stroke-width:3px;"/><path d="M32.981,17.488c1.565,-1.756 3.711,-3.02 6.207,-3.461c5.898,-1.044 11.525,2.892 12.568,8.79c0.864,4.876 -1.677,9.567 -5.916,11.636" style="fill:none;fill-rule:nonzero;stroke:#fff;stroke-width:3px;"/><path d="M41.098,6.541l-0.026,-4.212" style="fill:none;fill-rule:nonzero;stroke:#fff;stroke-width:3px;"/><path d="M58.865,26.354l4.213,-0.027" style="fill:none;fill-rule:nonzero;stroke:#fff;stroke-width:3px;"/><path d="M54.527,11.907l2.96,-2.997" style="fill:none;fill-rule:nonzero;stroke:#fff;stroke-width:3px;"/><path d="M26.619,11.907l-2.959,-2.997" style="fill:none;fill-rule:nonzero;stroke:#fff;stroke-width:3px;"/><path d="M55.837,41.596l-2.96,-2.997" style="fill:none;fill-rule:nonzero;stroke:#fff;stroke-width:3px;"/></g></svg>