<?xml version="1.0" encoding="UTF-8" standalone="no"?><!DOCTYPE svg PUBLIC "-//W3C//DTD SVG 1.1//EN" "http://www.w3.org/Graphics/SVG/1.1/DTD/svg11.dtd"><svg width="100%" height="100%" viewBox="0 0 64 51" version="1.1" xmlns="http://www.w3.org/2000/svg" xmlns:xlink="http://www.w3.org/1999/xlink" xml:space="preserve" xmlns:serif="http://www.serif.com/" style="fill-rule:evenodd;clip-rule:evenodd;stroke-linecap:round;stroke-linejoin:round;stroke-miterlimit:10;"><g><path d="M46.221,29.429c4.403,0.988 7.694,4.922 7.694,9.625c-0,5.447 -4.417,9.863 -9.864,9.863l-31.889,-0c-5.448,-0 -9.864,-3.875 -9.864,-9.323c-0,-4.66 3.232,-8.565 7.575,-9.597c-0.268,-0.795 -0.413,-1.647 -0.413,-2.533c-0,-4.386 3.555,-7.941 7.941,-7.941c2.176,-0 4.148,0.877 5.583,2.295l0.001,-0.001c1.932,-4.259 6.221,-7.221 11.202,-7.221c6.791,-0 12.297,5.505 12.297,12.296c-0,0.87 -0.263,2.539 -0.263,2.539l-0,-0.002Z" style="fill:none;fill-rule:nonzero;stroke:#fff;stroke-width:3px;"/><path d="M48.163,27.33c7.073,-0 13.807,-5.734 13.807,-12.808c0,-0.06 -0.008,-0.117 -0.009,-0.177c-1.746,2.142 -4.403,3.513 -7.383,3.513c-5.26,-0 -9.523,-4.264 -9.523,-9.524c0,-2.526 0.991,-4.816 2.596,-6.521c-6.359,0.749 -11.295,5.149 -11.295,11.709" style="fill:none;fill-rule:nonzero;stroke:#fff;stroke-width:3px;"/></g></svg>