<?xml version="1.0" encoding="UTF-8" standalone="no"?><!DOCTYPE svg PUBLIC "-//W3C//DTD SVG 1.1//EN" "http://www.w3.org/Graphics/SVG/1.1/DTD/svg11.dtd"><svg width="100%" height="100%" viewBox="0 0 57 40" version="1.1" xmlns="http://www.w3.org/2000/svg" xmlns:xlink="http://www.w3.org/1999/xlink" xml:space="preserve" xmlns:serif="http://www.serif.com/" style="fill-rule:evenodd;clip-rule:evenodd;stroke-linecap:round;stroke-linejoin:round;stroke-miterlimit:10;"><g><path d="M47.217,17.511c4.547,1.021 7.944,5.082 7.944,9.936c-0,5.625 -4.56,10.184 -10.185,10.184l-32.922,-0c-5.624,-0 -10.183,-4.001 -10.183,-9.626c-0,-4.811 3.336,-8.842 7.82,-9.908c-0.277,-0.82 -0.426,-1.7 -0.426,-2.615c-0,-4.527 3.67,-8.197 8.197,-8.197c2.248,-0 4.284,0.904 5.764,2.368l0.001,-0.001c1.996,-4.396 6.423,-7.455 11.567,-7.455c7.01,0 12.694,5.684 12.694,12.696c-0,0.898 -0.271,2.62 -0.271,2.62l-0,-0.002Z" style="fill:none;fill-rule:nonzero;stroke:#fff;stroke-width:3px;"/></g></svg>