<?xml version="1.0" encoding="UTF-8" standalone="no"?><!DOCTYPE svg PUBLIC "-//W3C//DTD SVG 1.1//EN" "http://www.w3.org/Graphics/SVG/1.1/DTD/svg11.dtd"><svg width="100%" height="100%" viewBox="0 0 58 40" version="1.1" xmlns="http://www.w3.org/2000/svg" xmlns:xlink="http://www.w3.org/1999/xlink" xml:space="preserve" xmlns:serif="http://www.serif.com/" style="fill-rule:evenodd;clip-rule:evenodd;stroke-linecap:round;stroke-linejoin:round;stroke-miterlimit:10;"><g><path d="M47.594,17.511c4.547,1.021 7.944,5.082 7.944,9.936c0,5.625 -4.56,10.184 -10.184,10.184l-32.922,-0c-5.624,-0 -10.184,-4.001 -10.184,-9.626c0,-4.811 3.336,-8.842 7.821,-9.908c-0.278,-0.82 -0.427,-1.7 -0.427,-2.615c0,-4.527 3.67,-8.197 8.198,-8.197c2.247,-0 4.283,0.904 5.764,2.368l0.001,-0.001c1.995,-4.396 6.423,-7.455 11.566,-7.455c7.01,0 12.695,5.684 12.695,12.696c-0,0.898 -0.272,2.62 -0.272,2.62l0,-0.002Z" style="fill:none;fill-rule:nonzero;stroke:#fff;stroke-width:3px;"/></g></svg>