<?xml version="1.0" encoding="UTF-8" standalone="no"?><!DOCTYPE svg PUBLIC "-//W3C//DTD SVG 1.1//EN" "http://www.w3.org/Graphics/SVG/1.1/DTD/svg11.dtd"><svg width="100%" height="100%" viewBox="0 0 65 44" version="1.1" xmlns="http://www.w3.org/2000/svg" xmlns:xlink="http://www.w3.org/1999/xlink" xml:space="preserve" xmlns:serif="http://www.serif.com/" style="fill-rule:evenodd;clip-rule:evenodd;stroke-linecap:round;stroke-linejoin:round;stroke-miterlimit:10;"><g><g><path d="M43.843,23.671c4.22,0.947 7.372,4.716 7.372,9.221c0,5.219 -4.231,9.45 -9.451,9.45l-30.551,0c-5.22,0 -9.451,-3.713 -9.451,-8.932c0,-4.465 3.096,-8.206 7.257,-9.195c-0.257,-0.761 -0.395,-1.578 -0.395,-2.427c-0,-4.201 3.406,-7.607 7.607,-7.607c2.086,-0 3.975,0.839 5.349,2.198l0.001,-0.001c1.852,-4.08 5.96,-6.918 10.734,-6.918c6.505,-0 11.78,5.275 11.78,11.781c-0,0.834 -0.252,2.432 -0.252,2.432l0,-0.002Z" style="fill:none;fill-rule:nonzero;stroke:#fff;stroke-width:3px;"/></g><g><path d="M20.643,15.791c-0.153,-0.602 -0.235,-1.233 -0.235,-1.883c0,-4.201 3.406,-7.607 7.608,-7.607c2.085,-0 3.975,0.839 5.349,2.198l0.001,-0.001c1.851,-4.08 5.96,-6.918 10.733,-6.918c6.506,-0 11.781,5.274 11.781,11.781c-0,0.834 -0.252,2.432 -0.252,2.432l0,-0.002c4.219,0.947 7.372,4.716 7.372,9.221c-0,5.219 -4.232,9.45 -9.451,9.45l-2.334,-0" style="fill:none;fill-rule:nonzero;stroke:#fff;stroke-width:3px;"/></g></g></svg>