<?xml version="1.0" encoding="UTF-8" standalone="no"?><!DOCTYPE svg PUBLIC "-//W3C//DTD SVG 1.1//EN" "http://www.w3.org/Graphics/SVG/1.1/DTD/svg11.dtd"><svg width="100%" height="100%" viewBox="0 0 54 54" version="1.1" xmlns="http://www.w3.org/2000/svg" xmlns:xlink="http://www.w3.org/1999/xlink" xml:space="preserve" xmlns:serif="http://www.serif.com/" style="fill-rule:evenodd;clip-rule:evenodd;stroke-linecap:round;stroke-linejoin:round;stroke-miterlimit:10;"><g><path d="M44.4,16.152c4.266,0.943 7.454,4.699 7.454,9.187c-0,5.2 -4.279,9.417 -9.556,9.417l-30.889,-0c-5.278,-0 -9.555,-3.7 -9.555,-8.901c-0,-4.447 3.129,-8.177 7.337,-9.161c-0.26,-0.76 -0.4,-1.573 -0.4,-2.419c-0,-4.186 3.443,-7.579 7.691,-7.579c2.109,0 4.02,0.835 5.409,2.189l0,-0c1.873,-4.066 6.027,-6.893 10.853,-6.893c6.577,-0 11.911,5.255 11.911,11.738c-0,0.83 -0.255,2.423 -0.255,2.423l0,-0.001Z" style="fill:none;fill-rule:nonzero;stroke:#fff;stroke-width:3px;"/><path d="M14.186,40.564l-0.823,5.747" style="fill:none;fill-rule:nonzero;stroke:#fff;stroke-width:3px;"/><path d="M22.729,40.564l-1.647,11.428" style="fill:none;fill-rule:nonzero;stroke:#fff;stroke-width:3px;"/><path d="M31.576,40.564l-1.647,11.428" style="fill:none;fill-rule:nonzero;stroke:#fff;stroke-width:3px;"/><path d="M40.119,40.564l-0.823,5.747" style="fill:none;fill-rule:nonzero;stroke:#fff;stroke-width:3px;"/></g></svg>