<?xml version="1.0" encoding="UTF-8" standalone="no"?><!DOCTYPE svg PUBLIC "-//W3C//DTD SVG 1.1//EN" "http://www.w3.org/Graphics/SVG/1.1/DTD/svg11.dtd"><svg width="100%" height="100%" viewBox="0 0 54 54" version="1.1" xmlns="http://www.w3.org/2000/svg" xmlns:xlink="http://www.w3.org/1999/xlink" xml:space="preserve" xmlns:serif="http://www.serif.com/" style="fill-rule:evenodd;clip-rule:evenodd;stroke-linecap:round;stroke-linejoin:round;stroke-miterlimit:10;"><g><path d="M44.44,16.02c4.266,0.943 7.453,4.699 7.453,9.188c0,5.2 -4.278,9.416 -9.555,9.416l-30.89,0c-5.277,0 -9.555,-3.7 -9.555,-8.901c0,-4.447 3.13,-8.177 7.338,-9.161c-0.26,-0.76 -0.4,-1.573 -0.4,-2.419c-0,-4.186 3.443,-7.579 7.691,-7.579c2.109,0 4.019,0.835 5.408,2.189l0.001,-0c1.873,-4.066 6.027,-6.893 10.853,-6.893c6.577,0 11.91,5.255 11.91,11.738c0,0.83 -0.254,2.423 -0.254,2.423l-0,-0.001Z" style="fill:none;fill-rule:nonzero;stroke:#fff;stroke-width:3px;"/><path d="M14.226,40.433l-0.824,5.747" style="fill:none;fill-rule:nonzero;stroke:#fff;stroke-width:3px;"/><path d="M22.769,40.433l-1.647,11.427" style="fill:none;fill-rule:nonzero;stroke:#fff;stroke-width:3px;"/><path d="M31.616,40.433l-1.647,11.427" style="fill:none;fill-rule:nonzero;stroke:#fff;stroke-width:3px;"/><path d="M40.159,40.433l-0.824,5.747" style="fill:none;fill-rule:nonzero;stroke:#fff;stroke-width:3px;"/></g></svg>