<?xml version="1.0" encoding="UTF-8" standalone="no"?><!DOCTYPE svg PUBLIC "-//W3C//DTD SVG 1.1//EN" "http://www.w3.org/Graphics/SVG/1.1/DTD/svg11.dtd"><svg width="100%" height="100%" viewBox="0 0 61 61" version="1.1" xmlns="http://www.w3.org/2000/svg" xmlns:xlink="http://www.w3.org/1999/xlink" xml:space="preserve" xmlns:serif="http://www.serif.com/" style="fill-rule:evenodd;clip-rule:evenodd;stroke-linecap:round;stroke-linejoin:round;stroke-miterlimit:10;"><g><path d="M37.235,28.028c3.575,0.802 6.246,3.995 6.246,7.812c0,4.422 -3.585,8.007 -8.007,8.007l-25.883,0c-4.423,0 -8.007,-3.146 -8.007,-7.569c-0,-3.781 2.622,-6.952 6.148,-7.789c-0.218,-0.645 -0.335,-1.337 -0.335,-2.056c-0,-3.559 2.885,-6.445 6.445,-6.445c1.767,-0 3.368,0.711 4.532,1.862l0.001,-0.001c1.568,-3.456 5.05,-5.861 9.092,-5.861c5.512,-0 9.981,4.468 9.981,9.981c0,0.706 -0.213,2.061 -0.213,2.061l0,-0.002Z" style="fill:none;fill-rule:nonzero;stroke:#fff;stroke-width:3px;"/><path d="M30.699,16.524c1.453,-1.63 3.446,-2.804 5.763,-3.213c5.476,-0.97 10.7,2.685 11.669,8.161c0.802,4.527 -1.557,8.882 -5.493,10.803" style="fill:none;fill-rule:nonzero;stroke:#fff;stroke-width:3px;"/><path d="M38.236,6.36l-0.025,-3.911" style="fill:none;fill-rule:nonzero;stroke:#fff;stroke-width:3px;"/><path d="M54.732,24.756l3.912,-0.025" style="fill:none;fill-rule:nonzero;stroke:#fff;stroke-width:3px;"/><path d="M50.704,11.343l2.749,-2.783" style="fill:none;fill-rule:nonzero;stroke:#fff;stroke-width:3px;"/><path d="M24.793,11.343l-2.747,-2.783" style="fill:none;fill-rule:nonzero;stroke:#fff;stroke-width:3px;"/><path d="M51.92,38.907l-2.748,-2.782" style="fill:none;fill-rule:nonzero;stroke:#fff;stroke-width:3px;"/><path d="M11.008,49.217c2.71,2.709 2.818,5.563 2.818,5.563c0,1.556 -1.261,2.818 -2.818,2.818c-1.556,0 -2.816,-1.262 -2.816,-2.818c0,0 0.107,-2.854 2.816,-5.563" style="fill:#fff;fill-rule:nonzero;"/><path d="M32.759,49.219c2.71,2.709 2.818,5.562 2.818,5.562c0,1.555 -1.261,2.818 -2.818,2.818c-1.556,0 -2.817,-1.263 -2.817,-2.818c0,0 0.108,-2.853 2.817,-5.562" style="fill:#fff;fill-rule:nonzero;"/><path d="M21.883,51.862c2.71,2.709 2.818,5.562 2.818,5.562c0,1.556 -1.261,2.819 -2.818,2.819c-1.555,-0 -2.816,-1.263 -2.816,-2.819c0,-0 0.107,-2.853 2.816,-5.562" style="fill:#fff;fill-rule:nonzero;"/></g></svg>