<?xml version="1.0" encoding="UTF-8" standalone="no"?><!DOCTYPE svg PUBLIC "-//W3C//DTD SVG 1.1//EN" "http://www.w3.org/Graphics/SVG/1.1/DTD/svg11.dtd"><svg width="100%" height="100%" viewBox="0 0 55 61" version="1.1" xmlns="http://www.w3.org/2000/svg" xmlns:xlink="http://www.w3.org/1999/xlink" xml:space="preserve" xmlns:serif="http://www.serif.com/" style="fill-rule:evenodd;clip-rule:evenodd;stroke-linecap:round;stroke-linejoin:round;stroke-miterlimit:10;"><g><path d="M36.198,27.559c3.468,0.778 6.059,3.877 6.059,7.58c-0,4.289 -3.479,7.768 -7.768,7.768l-25.112,-0c-4.29,-0 -7.769,-3.053 -7.769,-7.342c-0,-3.67 2.545,-6.746 5.966,-7.559c-0.211,-0.625 -0.325,-1.297 -0.325,-1.994c-0,-3.453 2.799,-6.254 6.253,-6.254c1.714,-0 3.266,0.692 4.397,1.808l-0,-0.001c1.522,-3.354 4.9,-5.686 8.822,-5.686c5.348,-0 9.684,4.335 9.684,9.682c-0,0.686 -0.207,2 -0.207,2l-0,-0.002Z" style="fill:none;fill-rule:nonzero;stroke:#fff;stroke-width:3px;"/><path d="M38.99,27.966c7.073,0 13.807,-5.733 13.807,-12.808c-0,-0.06 -0.009,-0.117 -0.009,-0.177c-1.746,2.142 -4.404,3.513 -7.383,3.513c-5.26,0 -9.523,-4.264 -9.523,-9.523c-0,-2.527 0.99,-4.817 2.596,-6.522c-6.359,0.748 -11.296,5.149 -11.296,11.709" style="fill:none;fill-rule:nonzero;stroke:#fff;stroke-width:3px;"/><path d="M10.944,49.217c2.71,2.709 2.818,5.563 2.818,5.563c-0,1.556 -1.261,2.818 -2.818,2.818c-1.556,0 -2.816,-1.262 -2.816,-2.818c-0,0 0.107,-2.854 2.816,-5.563" style="fill:#fff;fill-rule:nonzero;"/><path d="M32.695,49.219c2.71,2.709 2.818,5.562 2.818,5.562c-0,1.555 -1.261,2.818 -2.818,2.818c-1.556,0 -2.817,-1.263 -2.817,-2.818c-0,0 0.108,-2.853 2.817,-5.562" style="fill:#fff;fill-rule:nonzero;"/><path d="M21.819,51.862c2.71,2.709 2.818,5.562 2.818,5.562c-0,1.556 -1.261,2.819 -2.818,2.819c-1.555,-0 -2.816,-1.263 -2.816,-2.819c-0,-0 0.107,-2.853 2.816,-5.562" style="fill:#fff;fill-rule:nonzero;"/></g></svg>