<?xml version="1.0" encoding="UTF-8" standalone="no"?><!DOCTYPE svg PUBLIC "-//W3C//DTD SVG 1.1//EN" "http://www.w3.org/Graphics/SVG/1.1/DTD/svg11.dtd"><svg width="100%" height="100%" viewBox="0 0 51 51" version="1.1" xmlns="http://www.w3.org/2000/svg" xmlns:xlink="http://www.w3.org/1999/xlink" xml:space="preserve" xmlns:serif="http://www.serif.com/" style="fill-rule:evenodd;clip-rule:evenodd;stroke-linecap:round;stroke-linejoin:round;stroke-miterlimit:10;"><g><path d="M21.754,34.155l-5.718,7.141l5.485,0.069l-6.341,8.362l18.826,-10.42l-6.607,-0.035l3.498,-5.117l-9.143,0Z" style="fill:#fff;fill-rule:nonzero;stroke:#fff;stroke-width:1px;"/><path d="M41.719,15.462c3.997,0.897 6.983,4.467 6.983,8.735c0,4.944 -4.008,8.952 -8.952,8.952l-28.943,-0c-4.945,-0 -8.953,-3.517 -8.953,-8.461c-0,-4.23 2.933,-7.774 6.875,-8.711c-0.243,-0.722 -0.375,-1.495 -0.375,-2.299c0,-3.98 3.226,-7.206 7.207,-7.206c1.976,-0 3.765,0.794 5.068,2.081c1.754,-3.866 5.647,-6.554 10.168,-6.554c6.164,0 11.161,4.997 11.161,11.16c-0,0.79 -0.239,2.304 -0.239,2.304l-0,-0.001Z" style="fill:none;fill-rule:nonzero;stroke:#fff;stroke-width:3px;"/></g></svg>