<?xml version="1.0" encoding="UTF-8" standalone="no"?><!DOCTYPE svg PUBLIC "-//W3C//DTD SVG 1.1//EN" "http://www.w3.org/Graphics/SVG/1.1/DTD/svg11.dtd"><svg width="100%" height="100%" viewBox="0 0 51 51" version="1.1" xmlns="http://www.w3.org/2000/svg" xmlns:xlink="http://www.w3.org/1999/xlink" xml:space="preserve" xmlns:serif="http://www.serif.com/" style="fill-rule:evenodd;clip-rule:evenodd;stroke-linecap:round;stroke-linejoin:round;stroke-miterlimit:10;"><g><path d="M21.793,34.155l-5.718,7.141l5.486,0.069l-6.342,8.362l18.827,-10.42l-6.607,-0.035l3.497,-5.117l-9.143,0Z" style="fill:#fff;fill-rule:nonzero;stroke:#fff;stroke-width:1px;"/><path d="M41.759,15.462c3.996,0.897 6.983,4.467 6.983,8.735c0,4.944 -4.008,8.952 -8.952,8.952l-28.944,-0c-4.944,-0 -8.953,-3.517 -8.953,-8.461c0,-4.23 2.933,-7.774 6.875,-8.711c-0.242,-0.722 -0.374,-1.495 -0.374,-2.299c-0,-3.98 3.226,-7.206 7.207,-7.206c1.975,-0 3.765,0.794 5.067,2.081c1.755,-3.866 5.647,-6.554 10.169,-6.554c6.163,0 11.16,4.997 11.16,11.16c0,0.79 -0.238,2.304 -0.238,2.304l-0,-0.001Z" style="fill:none;fill-rule:nonzero;stroke:#fff;stroke-width:3px;"/></g></svg>