<?xml version="1.0" encoding="UTF-8" standalone="no"?><!DOCTYPE svg PUBLIC "-//W3C//DTD SVG 1.1//EN" "http://www.w3.org/Graphics/SVG/1.1/DTD/svg11.dtd"><svg width="100%" height="100%" viewBox="0 0 54 48" version="1.1" xmlns="http://www.w3.org/2000/svg" xmlns:xlink="http://www.w3.org/1999/xlink" xml:space="preserve" xmlns:serif="http://www.serif.com/" style="fill-rule:evenodd;clip-rule:evenodd;stroke-linecap:round;stroke-linejoin:round;stroke-miterlimit:10;"><g><path d="M11.409,35.686c-5.278,-0 -9.555,-3.754 -9.555,-9.032c-0,-4.514 3.129,-8.296 7.337,-9.296c-0.259,-0.769 -0.399,-1.595 -0.399,-2.453c-0,-4.249 3.443,-7.692 7.69,-7.692c2.109,-0 4.019,0.849 5.408,2.222l0.002,-0c1.872,-4.126 6.027,-6.995 10.851,-6.995c6.578,0 11.911,5.333 11.911,11.911c0,0.843 -0.254,2.46 -0.254,2.46l-0,-0.003c4.267,0.957 7.454,4.768 7.454,9.323c-0,5.277 -4.278,9.555 -9.555,9.555" style="fill:none;fill-rule:nonzero;stroke:#fff;stroke-width:3px;"/><path d="M26.853,25.12l0,21.132" style="fill:none;fill-rule:nonzero;stroke:#fff;stroke-width:2px;"/><path d="M37.419,35.686l-21.132,-0" style="fill:none;fill-rule:nonzero;stroke:#fff;stroke-width:2px;"/><path d="M17.995,32.627l3.06,3.059l-3.06,3.06" style="fill:none;fill-rule:nonzero;stroke:#fff;stroke-width:2px;"/><path d="M35.711,38.745l-3.059,-3.059l3.059,-3.06" style="fill:none;fill-rule:nonzero;stroke:#fff;stroke-width:2px;"/><path d="M23.794,44.544l3.059,-3.059l3.06,3.059" style="fill:none;fill-rule:nonzero;stroke:#fff;stroke-width:2px;"/><path d="M29.913,26.828l-3.06,3.059l-3.059,-3.059" style="fill:none;fill-rule:nonzero;stroke:#fff;stroke-width:2px;"/><path d="M34.325,28.215l-14.943,14.942" style="fill:none;fill-rule:nonzero;stroke:#fff;stroke-width:2px;"/><path d="M34.325,43.157l-14.943,-14.942" style="fill:none;fill-rule:nonzero;stroke:#fff;stroke-width:2px;"/></g></svg>