<?xml version="1.0" encoding="UTF-8" standalone="no"?><!DOCTYPE svg PUBLIC "-//W3C//DTD SVG 1.1//EN" "http://www.w3.org/Graphics/SVG/1.1/DTD/svg11.dtd"><svg width="100%" height="100%" viewBox="0 0 65 44" version="1.1" xmlns="http://www.w3.org/2000/svg" xmlns:xlink="http://www.w3.org/1999/xlink" xml:space="preserve" xmlns:serif="http://www.serif.com/" style="fill-rule:evenodd;clip-rule:evenodd;stroke-linecap:round;stroke-linejoin:round;stroke-miterlimit:10;"><g><path d="M48.868,21.672c4.702,1.055 8.216,5.256 8.216,10.277c-0,5.817 -4.716,10.533 -10.533,10.533l-34.051,0c-5.817,0 -10.533,-4.139 -10.533,-9.956c-0,-4.976 3.45,-9.146 8.088,-10.248c-0.286,-0.848 -0.44,-1.758 -0.44,-2.704c-0,-4.683 3.795,-8.479 8.479,-8.479c2.324,0 4.429,0.935 5.961,2.45l0.001,-0.001c2.063,-4.547 6.644,-7.71 11.962,-7.71c7.251,0 13.13,5.878 13.13,13.129c-0,0.93 -0.28,2.711 -0.28,2.711l-0,-0.002Z" style="fill:none;fill-rule:nonzero;stroke:#fff;stroke-width:3px;"/><path d="M40.269,6.539c1.911,-2.146 4.531,-3.688 7.581,-4.228c7.203,-1.274 14.076,3.533 15.351,10.736c1.053,5.956 -2.049,11.685 -7.225,14.213" style="fill:none;fill-rule:nonzero;stroke:#fff;stroke-width:3px;"/></g></svg>