<?xml version="1.0" encoding="UTF-8" standalone="no"?><!DOCTYPE svg PUBLIC "-//W3C//DTD SVG 1.1//EN" "http://www.w3.org/Graphics/SVG/1.1/DTD/svg11.dtd"><svg width="100%" height="100%" viewBox="0 0 63 62" version="1.1" xmlns="http://www.w3.org/2000/svg" xmlns:xlink="http://www.w3.org/1999/xlink" xml:space="preserve" xmlns:serif="http://www.serif.com/" style="fill-rule:evenodd;clip-rule:evenodd;stroke-linecap:round;stroke-linejoin:round;stroke-miterlimit:10;"><g><path d="M51.879,18.486c4.997,1.121 8.73,5.584 8.73,10.919c-0,6.181 -5.011,11.191 -11.191,11.191l-36.18,-0c-6.18,-0 -11.191,-4.397 -11.191,-10.578c-0,-5.287 3.666,-9.717 8.594,-10.888c-0.304,-0.901 -0.469,-1.869 -0.469,-2.873c-0,-4.976 4.033,-9.009 9.01,-9.009c2.468,-0 4.707,0.993 6.334,2.603l-0,-0.001c2.193,-4.832 7.058,-8.193 12.711,-8.193c7.704,-0 13.951,6.246 13.951,13.951c-0,0.987 -0.299,2.88 -0.299,2.88l-0,-0.002Z" style="fill:none;fill-rule:nonzero;stroke:#fff;stroke-width:3px;"/><path d="M17.563,47.632c3.446,3.446 3.585,7.077 3.585,7.077c0,1.979 -1.606,3.584 -3.585,3.584c-1.979,0 -3.584,-1.605 -3.584,-3.584c0,0 0.138,-3.631 3.584,-7.077" style="fill:#fff;fill-rule:nonzero;"/><path d="M45.232,47.633c3.447,3.447 3.586,7.078 3.586,7.078c0,1.978 -1.606,3.583 -3.586,3.583c-1.979,0 -3.583,-1.605 -3.583,-3.583c0,0 0.138,-3.631 3.583,-7.078" style="fill:#fff;fill-rule:nonzero;"/><path d="M31.397,50.996c3.447,3.446 3.585,7.077 3.585,7.077c0,1.979 -1.606,3.584 -3.585,3.584c-1.979,-0 -3.583,-1.605 -3.583,-3.584c0,-0 0.137,-3.631 3.583,-7.077" style="fill:#fff;fill-rule:nonzero;"/></g></svg>