<?xml version="1.0" encoding="UTF-8" standalone="no"?><!DOCTYPE svg PUBLIC "-//W3C//DTD SVG 1.1//EN" "http://www.w3.org/Graphics/SVG/1.1/DTD/svg11.dtd"><svg width="100%" height="100%" viewBox="0 0 65 64" version="1.1" xmlns="http://www.w3.org/2000/svg" xmlns:xlink="http://www.w3.org/1999/xlink" xml:space="preserve" xmlns:serif="http://www.serif.com/" style="fill-rule:evenodd;clip-rule:evenodd;stroke-linecap:round;stroke-linejoin:round;stroke-miterlimit:10;"><g><path d="M53.638,19.556c5.181,1.163 9.052,5.791 9.052,11.322c0,6.409 -5.196,11.604 -11.605,11.604l-37.514,-0c-6.409,-0 -11.604,-4.559 -11.604,-10.968c0,-5.482 3.801,-10.076 8.911,-11.29c-0.316,-0.935 -0.486,-1.938 -0.486,-2.98c0,-5.159 4.182,-9.341 9.341,-9.341c2.561,-0 4.881,1.03 6.568,2.699l0.001,-0.001c2.274,-5.01 7.319,-8.495 13.18,-8.495c7.988,-0 14.465,6.477 14.465,14.466c0,1.024 -0.309,2.986 -0.309,2.986l0,-0.002Z" style="fill:none;fill-rule:nonzero;stroke:#fff;stroke-width:3px;"/><path d="M15.241,51.024l5.458,5.458" style="fill:none;fill-rule:nonzero;stroke:#fff;stroke-width:3px;"/><path d="M15.241,56.607l5.521,-5.521" style="fill:none;fill-rule:nonzero;stroke:#fff;stroke-width:3px;"/><path d="M43.209,50.961l5.458,5.458" style="fill:none;fill-rule:nonzero;stroke:#fff;stroke-width:3px;"/><path d="M43.209,56.544l5.521,-5.521" style="fill:none;fill-rule:nonzero;stroke:#fff;stroke-width:3px;"/><path d="M28.911,56.815l5.458,5.458" style="fill:none;fill-rule:nonzero;stroke:#fff;stroke-width:3px;"/><path d="M28.911,62.399l5.521,-5.521" style="fill:none;fill-rule:nonzero;stroke:#fff;stroke-width:3px;"/></g></svg>