<?xml version="1.0" encoding="UTF-8" standalone="no"?><!DOCTYPE svg PUBLIC "-//W3C//DTD SVG 1.1//EN" "http://www.w3.org/Graphics/SVG/1.1/DTD/svg11.dtd"><svg width="100%" height="100%" viewBox="0 0 56 62" version="1.1" xmlns="http://www.w3.org/2000/svg" xmlns:xlink="http://www.w3.org/1999/xlink" xml:space="preserve" xmlns:serif="http://www.serif.com/" style="fill-rule:evenodd;clip-rule:evenodd;stroke-linecap:round;stroke-linejoin:round;stroke-miterlimit:10;"><g><path d="M10.742,49.295l-0.775,5.492" style="fill:none;fill-rule:nonzero;stroke:#fff;stroke-width:3px;"/><path d="M18.786,49.295l-1.551,10.918" style="fill:none;fill-rule:nonzero;stroke:#fff;stroke-width:3px;"/><path d="M27.117,49.295l-1.551,10.918" style="fill:none;fill-rule:nonzero;stroke:#fff;stroke-width:3px;"/><path d="M35.16,49.295l-0.775,5.492" style="fill:none;fill-rule:nonzero;stroke:#fff;stroke-width:3px;"/><path d="M36.921,26.953c3.468,0.779 6.06,3.877 6.06,7.58c-0,4.289 -3.479,7.768 -7.768,7.768l-25.113,0c-4.289,0 -7.768,-3.053 -7.768,-7.342c-0,-3.67 2.545,-6.746 5.965,-7.559c-0.211,-0.625 -0.324,-1.297 -0.324,-1.994c-0,-3.453 2.799,-6.254 6.252,-6.254c1.715,0 3.267,0.692 4.397,1.809l0.001,-0.002c1.522,-3.354 4.899,-5.686 8.822,-5.686c5.347,0 9.683,4.336 9.683,9.682c-0,0.686 -0.207,2 -0.207,2l-0,-0.002Z" style="fill:none;fill-rule:nonzero;stroke:#fff;stroke-width:3px;"/><path d="M39.713,27.361c7.073,0 13.807,-5.734 13.807,-12.809c-0,-0.06 -0.008,-0.117 -0.009,-0.177c-1.746,2.142 -4.403,3.513 -7.383,3.513c-5.26,0 -9.523,-4.263 -9.523,-9.523c-0,-2.527 0.991,-4.816 2.596,-6.522c-6.359,0.748 -11.295,5.149 -11.295,11.709" style="fill:none;fill-rule:nonzero;stroke:#fff;stroke-width:3px;"/></g></svg>