<?xml version="1.0" encoding="UTF-8" standalone="no"?><!DOCTYPE svg PUBLIC "-//W3C//DTD SVG 1.1//EN" "http://www.w3.org/Graphics/SVG/1.1/DTD/svg11.dtd"><svg width="100%" height="100%" viewBox="0 0 65 66" version="1.1" xmlns="http://www.w3.org/2000/svg" xmlns:xlink="http://www.w3.org/1999/xlink" xml:space="preserve" xmlns:serif="http://www.serif.com/" style="fill-rule:evenodd;clip-rule:evenodd;stroke-linecap:round;stroke-linejoin:round;stroke-miterlimit:10;"><g><path d="M53.981,19.629c5.181,1.162 9.052,5.791 9.052,11.322c-0,6.408 -5.196,11.604 -11.605,11.604l-37.514,-0c-6.409,-0 -11.604,-4.559 -11.604,-10.969c-0,-5.48 3.801,-10.076 8.911,-11.289c-0.316,-0.936 -0.486,-1.938 -0.486,-2.981c-0,-5.158 4.182,-9.339 9.341,-9.339c2.561,-0 4.881,1.029 6.568,2.697l0.001,-0c2.274,-5.01 7.319,-8.494 13.18,-8.494c7.988,-0 14.465,6.476 14.465,14.465c-0,1.023 -0.309,2.986 -0.309,2.986l-0,-0.002Z" style="fill:none;fill-rule:nonzero;stroke:#fff;stroke-width:3px;"/><path d="M17.287,49.713l-1,7.082" style="fill:none;fill-rule:nonzero;stroke:#fff;stroke-width:3px;"/><path d="M27.662,49.713l-2,14.082" style="fill:none;fill-rule:nonzero;stroke:#fff;stroke-width:3px;"/><path d="M38.407,49.713l-2,14.082" style="fill:none;fill-rule:nonzero;stroke:#fff;stroke-width:3px;"/><path d="M48.782,49.713l-1,7.082" style="fill:none;fill-rule:nonzero;stroke:#fff;stroke-width:3px;"/></g></svg>