<?xml version="1.0" encoding="UTF-8" standalone="no"?><!DOCTYPE svg PUBLIC "-//W3C//DTD SVG 1.1//EN" "http://www.w3.org/Graphics/SVG/1.1/DTD/svg11.dtd"><svg width="100%" height="100%" viewBox="0 0 63 58" version="1.1" xmlns="http://www.w3.org/2000/svg" xmlns:xlink="http://www.w3.org/1999/xlink" xml:space="preserve" xmlns:serif="http://www.serif.com/" style="fill-rule:evenodd;clip-rule:evenodd;stroke-linecap:round;stroke-linejoin:round;stroke-miterlimit:10;"><g><path d="M51.879,18.486c4.997,1.121 8.73,5.584 8.73,10.919c-0,6.181 -5.011,11.191 -11.191,11.191l-36.18,-0c-6.18,-0 -11.191,-4.397 -11.191,-10.578c-0,-5.287 3.666,-9.717 8.594,-10.888c-0.304,-0.901 -0.469,-1.869 -0.469,-2.873c-0,-4.976 4.033,-9.009 9.01,-9.009c2.468,-0 4.707,0.993 6.334,2.603l-0,-0.001c2.193,-4.832 7.058,-8.193 12.711,-8.193c7.704,-0 13.951,6.246 13.951,13.951c-0,0.987 -0.299,2.88 -0.299,2.88l-0,-0.002Z" style="fill:none;fill-rule:nonzero;stroke:#fff;stroke-width:3px;"/><path d="M20.055,48.389c-0,1.053 -0.854,1.907 -1.907,1.907c-1.053,0 -1.907,-0.854 -1.907,-1.907c-0,-1.053 0.854,-1.907 1.907,-1.907c1.053,0 1.907,0.854 1.907,1.907" style="fill:#fff;fill-rule:nonzero;"/><path d="M20.055,48.389c-0,-1.052 -0.855,-1.907 -1.907,-1.907c-1.053,0 -1.907,0.855 -1.907,1.907c-0,1.053 0.854,1.907 1.907,1.907c1.052,0 1.907,-0.854 1.907,-1.907Z" style="fill:none;stroke:#fff;stroke-width:1px;"/><path d="M33.853,48.389c0,1.053 -0.854,1.907 -1.908,1.907c-1.053,0 -1.906,-0.854 -1.906,-1.907c0,-1.053 0.853,-1.907 1.906,-1.907c1.054,0 1.908,0.854 1.908,1.907" style="fill:#fff;fill-rule:nonzero;"/><path d="M33.853,48.389c0,-1.052 -0.854,-1.907 -1.907,-1.907c-1.052,0 -1.907,0.855 -1.907,1.907c0,1.053 0.855,1.907 1.907,1.907c1.053,0 1.907,-0.854 1.907,-1.907Z" style="fill:none;stroke:#fff;stroke-width:1px;"/><path d="M47.651,48.389c0,1.053 -0.854,1.907 -1.907,1.907c-1.053,0 -1.906,-0.854 -1.906,-1.907c0,-1.053 0.853,-1.907 1.906,-1.907c1.053,0 1.907,0.854 1.907,1.907" style="fill:#fff;fill-rule:nonzero;"/><path d="M47.651,48.389c0,-1.052 -0.854,-1.907 -1.906,-1.907c-1.052,0 -1.907,0.855 -1.907,1.907c0,1.053 0.855,1.907 1.907,1.907c1.052,0 1.906,-0.854 1.906,-1.907Z" style="fill:none;stroke:#fff;stroke-width:1px;"/><path d="M27.055,55.389c-0,1.053 -0.854,1.907 -1.907,1.907c-1.053,0 -1.907,-0.854 -1.907,-1.907c-0,-1.053 0.854,-1.907 1.907,-1.907c1.053,0 1.907,0.854 1.907,1.907" style="fill:#fff;fill-rule:nonzero;"/><path d="M27.055,55.389c-0,-1.052 -0.855,-1.907 -1.907,-1.907c-1.053,0 -1.907,0.855 -1.907,1.907c-0,1.053 0.854,1.907 1.907,1.907c1.052,0 1.907,-0.854 1.907,-1.907Z" style="fill:none;stroke:#fff;stroke-width:1px;"/><path d="M40.853,55.389c0,1.053 -0.854,1.907 -1.908,1.907c-1.053,0 -1.906,-0.854 -1.906,-1.907c0,-1.053 0.853,-1.907 1.906,-1.907c1.054,0 1.908,0.854 1.908,1.907" style="fill:#fff;fill-rule:nonzero;"/><path d="M40.853,55.389c0,-1.052 -0.854,-1.907 -1.907,-1.907c-1.052,0 -1.907,0.855 -1.907,1.907c0,1.053 0.855,1.907 1.907,1.907c1.053,0 1.907,-0.854 1.907,-1.907Z" style="fill:none;stroke:#fff;stroke-width:1px;"/></g></svg>