<?xml version="1.0" encoding="UTF-8" standalone="no"?><!DOCTYPE svg PUBLIC "-//W3C//DTD SVG 1.1//EN" "http://www.w3.org/Graphics/SVG/1.1/DTD/svg11.dtd"><svg width="100%" height="100%" viewBox="0 0 65 62" version="1.1" xmlns="http://www.w3.org/2000/svg" xmlns:xlink="http://www.w3.org/1999/xlink" xml:space="preserve" xmlns:serif="http://www.serif.com/" style="fill-rule:evenodd;clip-rule:evenodd;stroke-linecap:round;stroke-linejoin:round;stroke-miterlimit:10;"><g><path d="M48.853,21.58c4.702,1.055 8.216,5.256 8.216,10.276c0,5.818 -4.716,10.533 -10.533,10.533l-34.051,0c-5.817,0 -10.532,-4.138 -10.532,-9.955c-0,-4.976 3.45,-9.147 8.088,-10.249c-0.287,-0.847 -0.441,-1.757 -0.441,-2.704c0,-4.682 3.795,-8.479 8.479,-8.479c2.324,0 4.429,0.935 5.961,2.45l0.001,-0.001c2.063,-4.547 6.644,-7.71 11.962,-7.71c7.251,0 13.13,5.878 13.13,13.13c0,0.93 -0.28,2.711 -0.28,2.711l0,-0.002Z" style="fill:none;fill-rule:nonzero;stroke:#fff;stroke-width:3px;"/><path d="M40.255,6.445c1.911,-2.145 4.531,-3.688 7.581,-4.228c7.203,-1.274 14.076,3.533 15.351,10.737c1.053,5.956 -2.049,11.684 -7.225,14.212" style="fill:none;fill-rule:nonzero;stroke:#fff;stroke-width:3px;"/><path d="M17.62,51.982c-0,1.053 -0.854,1.906 -1.907,1.906c-1.053,0 -1.907,-0.853 -1.907,-1.906c-0,-1.054 0.854,-1.908 1.907,-1.908c1.053,0 1.907,0.854 1.907,1.908" style="fill:#fff;fill-rule:nonzero;"/><path d="M17.62,51.981c-0,-1.052 -0.855,-1.907 -1.907,-1.907c-1.053,0 -1.907,0.855 -1.907,1.907c-0,1.053 0.854,1.907 1.907,1.907c1.052,0 1.907,-0.854 1.907,-1.907Z" style="fill:none;stroke:#fff;stroke-width:1px;"/><path d="M31.418,51.982c0,1.053 -0.854,1.906 -1.907,1.906c-1.053,0 -1.907,-0.853 -1.907,-1.906c0,-1.054 0.854,-1.908 1.907,-1.908c1.053,0 1.907,0.854 1.907,1.908" style="fill:#fff;fill-rule:nonzero;"/><path d="M31.418,51.981c0,-1.052 -0.854,-1.907 -1.907,-1.907c-1.053,0 -1.907,0.855 -1.907,1.907c0,1.053 0.854,1.907 1.907,1.907c1.053,0 1.907,-0.854 1.907,-1.907Z" style="fill:none;stroke:#fff;stroke-width:1px;"/><path d="M45.216,51.982c0,1.053 -0.854,1.906 -1.907,1.906c-1.053,0 -1.907,-0.853 -1.907,-1.906c0,-1.054 0.854,-1.908 1.907,-1.908c1.053,0 1.907,0.854 1.907,1.908" style="fill:#fff;fill-rule:nonzero;"/><path d="M45.216,51.981c0,-1.052 -0.854,-1.907 -1.907,-1.907c-1.052,0 -1.907,0.855 -1.907,1.907c0,1.053 0.855,1.907 1.907,1.907c1.053,0 1.907,-0.854 1.907,-1.907Z" style="fill:none;stroke:#fff;stroke-width:1px;"/><path d="M24.62,58.982c-0,1.053 -0.854,1.906 -1.907,1.906c-1.053,0 -1.907,-0.853 -1.907,-1.906c-0,-1.054 0.854,-1.908 1.907,-1.908c1.053,0 1.907,0.854 1.907,1.908" style="fill:#fff;fill-rule:nonzero;"/><path d="M24.62,58.981c-0,-1.052 -0.855,-1.907 -1.907,-1.907c-1.053,0 -1.907,0.855 -1.907,1.907c-0,1.053 0.854,1.907 1.907,1.907c1.052,0 1.907,-0.854 1.907,-1.907Z" style="fill:none;stroke:#fff;stroke-width:1px;"/><path d="M38.418,58.982c0,1.053 -0.854,1.906 -1.907,1.906c-1.053,0 -1.907,-0.853 -1.907,-1.906c0,-1.054 0.854,-1.908 1.907,-1.908c1.053,0 1.907,0.854 1.907,1.908" style="fill:#fff;fill-rule:nonzero;"/><path d="M38.418,58.981c0,-1.052 -0.854,-1.907 -1.907,-1.907c-1.053,0 -1.907,0.855 -1.907,1.907c0,1.053 0.854,1.907 1.907,1.907c1.053,0 1.907,-0.854 1.907,-1.907Z" style="fill:none;stroke:#fff;stroke-width:1px;"/></g></svg>