<?xml version="1.0" encoding="UTF-8" standalone="no"?><!DOCTYPE svg PUBLIC "-//W3C//DTD SVG 1.1//EN" "http://www.w3.org/Graphics/SVG/1.1/DTD/svg11.dtd"><svg width="100%" height="100%" viewBox="0 0 63 55" version="1.1" xmlns="http://www.w3.org/2000/svg" xmlns:xlink="http://www.w3.org/1999/xlink" xml:space="preserve" xmlns:serif="http://www.serif.com/" style="fill-rule:evenodd;clip-rule:evenodd;stroke-linecap:round;stroke-linejoin:round;stroke-miterlimit:10;"><g><path d="M13.583,41.232c-6.181,0 -11.191,-4.396 -11.191,-10.578c-0,-5.287 3.665,-9.717 8.594,-10.888c-0.304,-0.901 -0.468,-1.868 -0.468,-2.873c-0,-4.976 4.033,-9.009 9.007,-9.009c2.47,0 4.707,0.994 6.334,2.603l0.002,-0.001c2.193,-4.832 7.059,-8.192 12.709,-8.192c7.705,0 13.951,6.246 13.951,13.95c-0,0.988 -0.298,2.881 -0.298,2.881l-0,-0.003c4.998,1.121 8.73,5.584 8.73,10.919c-0,6.181 -5.01,11.191 -11.191,11.191" style="fill:none;fill-rule:nonzero;stroke:#fff;stroke-width:3px;"/><path d="M31.672,28.857l-0,24.75" style="fill:none;fill-rule:nonzero;stroke:#fff;stroke-width:2px;"/><path d="M44.047,41.232l-24.75,0" style="fill:none;fill-rule:nonzero;stroke:#fff;stroke-width:2px;"/><path d="M21.297,37.649l3.584,3.583l-3.584,3.584" style="fill:none;fill-rule:nonzero;stroke:#fff;stroke-width:2px;"/><path d="M42.047,44.815l-3.583,-3.583l3.583,-3.584" style="fill:none;fill-rule:nonzero;stroke:#fff;stroke-width:2px;"/><path d="M28.089,51.607l3.583,-3.583l3.584,3.583" style="fill:none;fill-rule:nonzero;stroke:#fff;stroke-width:2px;"/><path d="M35.256,30.857l-3.584,3.583l-3.583,-3.583" style="fill:none;fill-rule:nonzero;stroke:#fff;stroke-width:2px;"/><path d="M40.423,32.482l-17.501,17.501" style="fill:none;fill-rule:nonzero;stroke:#fff;stroke-width:2px;"/><path d="M40.423,49.983l-17.501,-17.501" style="fill:none;fill-rule:nonzero;stroke:#fff;stroke-width:2px;"/></g></svg>