<?xml version="1.0" encoding="UTF-8" standalone="no"?><!DOCTYPE svg PUBLIC "-//W3C//DTD SVG 1.1//EN" "http://www.w3.org/Graphics/SVG/1.1/DTD/svg11.dtd"><svg width="100%" height="100%" viewBox="0 0 65 66" version="1.1" xmlns="http://www.w3.org/2000/svg" xmlns:xlink="http://www.w3.org/1999/xlink" xml:space="preserve" xmlns:serif="http://www.serif.com/" style="fill-rule:evenodd;clip-rule:evenodd;stroke-linecap:round;stroke-linejoin:round;stroke-miterlimit:10;"><g><path d="M12.227,53.295l-0.775,5.492" style="fill:none;fill-rule:nonzero;stroke:#fff;stroke-width:3px;"/><path d="M20.272,53.295l-1.551,10.918" style="fill:none;fill-rule:nonzero;stroke:#fff;stroke-width:3px;"/><path d="M28.602,53.295l-1.551,10.918" style="fill:none;fill-rule:nonzero;stroke:#fff;stroke-width:3px;"/><path d="M36.645,53.295l-0.775,5.492" style="fill:none;fill-rule:nonzero;stroke:#fff;stroke-width:3px;"/><path d="M40.408,29.623c3.85,0.865 6.727,4.305 6.727,8.414c0,4.764 -3.862,8.625 -8.623,8.625l-27.879,-0c-4.763,-0 -8.623,-3.389 -8.623,-8.152c0,-4.073 2.824,-7.489 6.621,-8.389c-0.235,-0.695 -0.361,-1.441 -0.361,-2.215c0,-3.834 3.109,-6.941 6.943,-6.941c1.902,-0 3.627,0.765 4.881,2.004c1.689,-3.723 5.439,-6.313 9.794,-6.313c5.936,-0 10.75,4.813 10.75,10.75c0,0.762 -0.23,2.219 -0.23,2.219l0,-0.002Z" style="fill:none;fill-rule:nonzero;stroke:#fff;stroke-width:3px;"/><path d="M33.369,17.232c1.564,-1.756 3.71,-3.02 6.206,-3.461c5.898,-1.043 11.525,2.893 12.569,8.791c0.863,4.875 -1.677,9.566 -5.916,11.635" style="fill:none;fill-rule:nonzero;stroke:#fff;stroke-width:3px;"/><path d="M41.486,6.285l-0.027,-4.211" style="fill:none;fill-rule:nonzero;stroke:#fff;stroke-width:3px;"/><path d="M59.254,26.1l4.213,-0.027" style="fill:none;fill-rule:nonzero;stroke:#fff;stroke-width:3px;"/><path d="M54.916,11.652l2.959,-2.996" style="fill:none;fill-rule:nonzero;stroke:#fff;stroke-width:3px;"/><path d="M27.008,11.652l-2.959,-2.996" style="fill:none;fill-rule:nonzero;stroke:#fff;stroke-width:3px;"/><path d="M56.225,41.342l-2.959,-2.998" style="fill:none;fill-rule:nonzero;stroke:#fff;stroke-width:3px;"/></g></svg>