<?xml version="1.0" encoding="UTF-8" standalone="no"?><!DOCTYPE svg PUBLIC "-//W3C//DTD SVG 1.1//EN" "http://www.w3.org/Graphics/SVG/1.1/DTD/svg11.dtd"><svg width="100%" height="100%" viewBox="0 0 63 63" version="1.1" xmlns="http://www.w3.org/2000/svg" xmlns:xlink="http://www.w3.org/1999/xlink" xml:space="preserve" xmlns:serif="http://www.serif.com/" style="fill-rule:evenodd;clip-rule:evenodd;stroke-linecap:round;stroke-linejoin:round;stroke-miterlimit:10;"><g><path d="M47.938,31.304c-0,-9.139 -7.419,-16.558 -16.557,-16.558c-9.138,0 -16.557,7.419 -16.557,16.558c-0,9.138 7.419,16.557 16.557,16.557c9.138,0 16.557,-7.419 16.557,-16.557Z" style="fill:none;stroke:#fff;stroke-width:3px;"/><path d="M31.381,6.736l0,-5.212" style="fill:none;fill-rule:nonzero;stroke:#fff;stroke-width:3px;"/><path d="M1.672,31.304l5.212,0" style="fill:none;fill-rule:nonzero;stroke:#fff;stroke-width:3px;"/><path d="M48.702,48.626l4.099,4.099" style="fill:none;fill-rule:nonzero;stroke:#fff;stroke-width:3px;"/><path d="M9.959,9.883l4.1,4.1" style="fill:none;fill-rule:nonzero;stroke:#fff;stroke-width:3px;"/><path d="M14.058,48.626l-4.1,4.1" style="fill:none;fill-rule:nonzero;stroke:#fff;stroke-width:3px;"/><path d="M52.801,9.884l-4.101,4.1" style="fill:none;fill-rule:nonzero;stroke:#fff;stroke-width:3px;"/><path d="M48.703,13.983l4.1,-4.1" style="fill:none;fill-rule:nonzero;stroke:#fff;stroke-width:3px;"/><path d="M9.96,52.726l4.1,-4.1" style="fill:none;fill-rule:nonzero;stroke:#fff;stroke-width:3px;"/><path d="M48.651,48.677l4.099,4.1" style="fill:none;fill-rule:nonzero;stroke:#fff;stroke-width:3px;"/><path d="M9.908,9.934l4.1,4.1" style="fill:none;fill-rule:nonzero;stroke:#fff;stroke-width:3px;"/><path d="M31.329,55.851l0,5.212" style="fill:none;fill-rule:nonzero;stroke:#fff;stroke-width:3px;"/><path d="M31.329,1.647l-0,5.212" style="fill:none;fill-rule:nonzero;stroke:#fff;stroke-width:3px;"/><path d="M6.832,31.355l-5.212,-0" style="fill:none;fill-rule:nonzero;stroke:#fff;stroke-width:3px;"/><path d="M61.035,31.355l-5.213,-0" style="fill:none;fill-rule:nonzero;stroke:#fff;stroke-width:3px;"/></g></svg>