<?xml version="1.0" encoding="UTF-8" standalone="no"?><!DOCTYPE svg PUBLIC "-//W3C//DTD SVG 1.1//EN" "http://www.w3.org/Graphics/SVG/1.1/DTD/svg11.dtd"><svg width="100%" height="100%" viewBox="0 0 63 52" version="1.1" xmlns="http://www.w3.org/2000/svg" xmlns:xlink="http://www.w3.org/1999/xlink" xml:space="preserve" xmlns:serif="http://www.serif.com/" style="fill-rule:evenodd;clip-rule:evenodd;stroke-linecap:round;stroke-linejoin:round;stroke-miterlimit:10;"><g><path d="M44.417,42.297c2.4,-2.873 3.845,-6.572 3.845,-10.609c0,-9.145 -7.413,-16.557 -16.556,-16.557c-9.145,-0 -16.558,7.412 -16.558,16.557c0,4.035 1.444,7.734 3.844,10.607" style="fill:none;fill-rule:nonzero;stroke:#fff;stroke-width:3px;"/><path d="M31.706,8.119l-0,-5.213" style="fill:none;fill-rule:nonzero;stroke:#fff;stroke-width:3px;"/><path d="M1.997,31.688l5.212,-0.001" style="fill:none;fill-rule:nonzero;stroke:#fff;stroke-width:3px;"/><path d="M10.283,10.268l4.1,4.1" style="fill:none;fill-rule:nonzero;stroke:#fff;stroke-width:3px;"/><path d="M53.125,10.268l-4.101,4.1" style="fill:none;fill-rule:nonzero;stroke:#fff;stroke-width:3px;"/><path d="M49.027,14.367l4.1,-4.1" style="fill:none;fill-rule:nonzero;stroke:#fff;stroke-width:3px;"/><path d="M10.232,10.318l4.1,4.1" style="fill:none;fill-rule:nonzero;stroke:#fff;stroke-width:3px;"/><path d="M31.653,2.031l-0,5.211" style="fill:none;fill-rule:nonzero;stroke:#fff;stroke-width:3px;"/><path d="M7.156,31.738l-5.212,0" style="fill:none;fill-rule:nonzero;stroke:#fff;stroke-width:3px;"/><path d="M61.359,31.738l-5.213,0" style="fill:none;fill-rule:nonzero;stroke:#fff;stroke-width:3px;"/><path d="M4.55,50.295l54.203,-0" style="fill:none;fill-rule:nonzero;stroke:#fff;stroke-width:3px;"/></g></svg>