<?xml version="1.0" encoding="UTF-8" standalone="no"?><!DOCTYPE svg PUBLIC "-//W3C//DTD SVG 1.1//EN" "http://www.w3.org/Graphics/SVG/1.1/DTD/svg11.dtd"><svg width="100%" height="100%" viewBox="0 0 53 53" version="1.1" xmlns="http://www.w3.org/2000/svg" xmlns:xlink="http://www.w3.org/1999/xlink" xml:space="preserve" xmlns:serif="http://www.serif.com/" style="fill-rule:evenodd;clip-rule:evenodd;stroke-linecap:round;stroke-linejoin:round;stroke-miterlimit:10;"><g><path d="M18.752,11.988c2.271,-1.17 4.847,-1.832 7.577,-1.832c9.144,0 16.557,7.414 16.557,16.557c0,1.904 -0.322,3.732 -0.913,5.433" style="fill:none;fill-rule:nonzero;stroke:#fff;stroke-width:3px;"/><path d="M36.618,32.957c-9.995,0 -18.096,-8.102 -18.096,-18.096c0,-4.8 1.883,-9.152 4.935,-12.392c-12.085,1.424 -21.465,11.685 -21.465,24.152c0,13.44 10.896,24.338 24.337,24.338c13.439,0 24.337,-10.898 24.337,-24.338c0,-0.115 -0.017,-0.225 -0.018,-0.34c-3.318,4.072 -8.368,6.676 -14.03,6.676Z" style="fill:none;fill-rule:nonzero;stroke:#fff;stroke-width:3px;"/></g></svg>