<?xml version="1.0" encoding="UTF-8" standalone="no"?><!DOCTYPE svg PUBLIC "-//W3C//DTD SVG 1.1//EN" "http://www.w3.org/Graphics/SVG/1.1/DTD/svg11.dtd"><svg width="100%" height="100%" viewBox="0 0 65 64" version="1.1" xmlns="http://www.w3.org/2000/svg" xmlns:xlink="http://www.w3.org/1999/xlink" xml:space="preserve" xmlns:serif="http://www.serif.com/" style="fill-rule:evenodd;clip-rule:evenodd;stroke-linecap:round;stroke-linejoin:round;stroke-miterlimit:10;"><g><path d="M27.781,43.241l-7.375,9.21l7.075,0.088l-8.179,10.785l24.282,-13.439l-8.522,-0.045l4.511,-6.599l-11.792,-0Z" style="fill:#fff;fill-rule:nonzero;stroke:#fff;stroke-width:1px;"/><path d="M53.531,19.13c5.155,1.157 9.007,5.762 9.007,11.266c0,6.377 -5.17,11.546 -11.546,11.546l-37.33,0c-6.377,0 -11.547,-4.536 -11.547,-10.913c0,-5.455 3.783,-10.026 8.867,-11.234c-0.313,-0.931 -0.483,-1.928 -0.483,-2.965c0,-5.134 4.161,-9.295 9.295,-9.295c2.548,0 4.856,1.025 6.536,2.685c2.263,-4.986 7.283,-8.453 13.115,-8.453c7.949,0 14.394,6.444 14.394,14.393c0,1.019 -0.308,2.972 -0.308,2.972l0,-0.002Z" style="fill:none;fill-rule:nonzero;stroke:#fff;stroke-width:3px;"/></g></svg>