<?xml version="1.0" encoding="UTF-8" standalone="no"?><!DOCTYPE svg PUBLIC "-//W3C//DTD SVG 1.1//EN" "http://www.w3.org/Graphics/SVG/1.1/DTD/svg11.dtd"><svg width="100%" height="100%" viewBox="0 0 55 61" version="1.1" xmlns="http://www.w3.org/2000/svg" xmlns:xlink="http://www.w3.org/1999/xlink" xml:space="preserve" xmlns:serif="http://www.serif.com/" style="fill-rule:evenodd;clip-rule:evenodd;stroke-linecap:round;stroke-linejoin:round;stroke-miterlimit:10;"><g><path d="M36.667,26.947c3.468,0.777 6.06,3.875 6.06,7.578c0,4.291 -3.479,7.769 -7.768,7.769l-25.113,0c-4.29,0 -7.768,-3.052 -7.768,-7.343c-0,-3.669 2.545,-6.744 5.965,-7.557c-0.21,-0.627 -0.325,-1.297 -0.325,-1.996c0,-3.453 2.8,-6.252 6.253,-6.252c1.715,0 3.267,0.69 4.397,1.807l0.001,0c1.522,-3.355 4.899,-5.688 8.822,-5.688c5.347,0 9.683,4.336 9.683,9.684c0,0.686 -0.207,1.999 -0.207,1.999l0,-0.001Z" style="fill:none;fill-rule:nonzero;stroke:#fff;stroke-width:3px;"/><path d="M39.459,27.354c7.073,-0 13.807,-5.734 13.807,-12.808c0,-0.059 -0.009,-0.118 -0.01,-0.177c-1.746,2.142 -4.403,3.512 -7.382,3.512c-5.26,-0 -9.524,-4.263 -9.524,-9.523c0,-2.525 0.991,-4.816 2.597,-6.522c-6.359,0.75 -11.296,5.151 -11.296,11.71" style="fill:none;fill-rule:nonzero;stroke:#fff;stroke-width:3px;"/><path d="M18.852,42.931l-6.256,7.812l6.002,0.076l-6.939,9.148l20.597,-11.4l-7.228,-0.038l3.827,-5.598l-10.003,-0Z" style="fill:#fff;fill-rule:nonzero;stroke:#fff;stroke-width:1px;"/></g></svg>